<svg width="567" height="568" viewBox="0 0 567 568" fill="none" xmlns="http://www.w3.org/2000/svg">
<g clip-path="url(#clip0_511_16)">
<path d="M25 312.698H58.9378C84.4612 312.698 100.448 318.598 100.448 342.058C100.448 356.728 91.0524 365.217 77.5895 366.863C91.3329 368.529 102.832 376.396 102.832 393.634C102.832 417.697 85.0222 424.339 58.6573 424.339C50.8039 424.339 30.6095 424.339 25 424.179V312.658V312.698ZM60.0597 364.455C79.9736 364.455 84.7417 356.889 84.7417 342.219C84.7417 322.251 76.4676 318.759 58.9378 318.759H40.286V364.455H60.0597ZM58.9378 418.319C77.0286 418.319 86.705 414.225 86.705 393.353C86.705 378.222 81.5162 369.893 60.3401 369.893H40.286V418.319H58.9378Z" fill="white"/>
<path d="M135.909 312.698H219.892V318.759H185.673V424.359H170.107V318.759H135.889V312.698H135.909Z" fill="white"/>
<path d="M249.903 368.689C249.903 329.054 267.994 311.795 300.389 311.795C308.242 311.795 316.516 312.859 324.51 314.665V320.103C318.059 318.899 311.327 318.137 304.736 318.137C275.847 318.137 266.311 331.141 266.311 368.368C266.311 405.595 275.847 418.901 304.736 418.901C311.748 418.901 317.919 417.998 324.51 416.934V422.373C316.376 424.179 308.523 425.242 300.389 425.242C267.994 425.242 249.903 408.304 249.903 368.649V368.689Z" fill="white"/>
<path d="M368.805 312.698H384.512V418.299H432.614V424.359H368.805V312.698Z" fill="white"/>
<path d="M472.441 312.698H541.018V318.759H488.148V363.993H536.25V370.054H488.148V418.319H542V424.379H472.441V312.718V312.698Z" fill="white"/>
<path opacity="0.39" d="M380.946 93.1483C372.251 98.8478 363.015 104.025 353.94 109.183C330.28 122.629 306.239 135.433 282.639 149.019L280.555 149.721L181.106 94.0514C182.588 92.466 184.832 91.4224 186.715 90.3387C200.94 82.1106 215.745 74.7856 230.109 66.7783C247.138 57.3059 263.947 47.4322 281.016 38L380.926 93.1483H380.946Z" fill="white"/>
<path opacity="0.8" d="M376.398 156.926L375.817 157.95C345.365 173.282 316.296 191.584 285.824 206.857C284.622 207.459 282.238 208.924 281.036 208.924L189.46 158.813L186.575 156.685C210.416 143.741 233.936 130.195 257.736 117.17C265.409 112.976 273.182 108.641 281.036 104.908C294.018 110.949 306.199 118.615 318.74 125.539C337.893 136.095 357.165 146.49 376.398 156.926Z" fill="white"/>
<path d="M75.566 492.973H80.7749V527.993H96.7221V530H75.566V492.973Z" fill="white"/>
<path d="M113.35 492.974H118.038L130.64 530H125.251L121.444 518.722H106.759L102.993 530H100.909L113.371 492.974H113.35ZM107.46 516.695H120.763L114.072 496.927L107.46 516.695Z" fill="white"/>
<path d="M143.121 516.032L130.9 492.953H136.75L147.308 513.122L157.906 492.953H160.33L148.33 515.832V529.98H143.121V516.032Z" fill="white"/>
<path d="M167.382 492.974H190.121V494.98H172.591V509.972H188.538V511.978H172.591V527.973H190.441V529.98H167.382V492.953V492.974Z" fill="white"/>
<path d="M210.736 515.129H203.905V529.98H198.836V492.953H210.977C219.151 492.953 224.419 496.205 224.419 503.891C224.419 509.711 221.314 513.263 216.105 514.567L224.56 529.96H218.97L210.736 515.109V515.129ZM210.876 513.082C216.827 513.082 219.151 510.674 219.151 503.911C219.151 497.148 216.827 494.98 210.596 494.98H203.905V513.082H210.876Z" fill="white"/>
<path d="M247.138 492.974H252.347V530H247.138V492.974Z" fill="white"/>
<path d="M263.085 492.974H268.294V530H263.085V492.974Z" fill="white"/>
<path d="M292.155 492.974H297.364V527.993H313.311V530H292.155V492.974Z" fill="white"/>
<path d="M320.744 492.974H325.952V530H320.744V492.974Z" fill="white"/>
<path d="M338.313 498.994V530H336.31V492.974H341.559L353.459 524.822L365.319 492.974H370.428V530H365.319V498.753L353.74 530H349.973L338.293 498.994H338.313Z" fill="white"/>
<path d="M380.826 492.974H386.034V530H380.826V492.974Z" fill="white"/>
<path d="M393.467 492.974H421.314V494.98H409.975V530H404.806V494.98H393.467V492.974Z" fill="white"/>
<path d="M428.386 492.974H451.125V494.98H433.595V509.972H449.542V511.978H433.595V527.973H451.446V529.98H428.386V492.953V492.974Z" fill="white"/>
<path d="M459.82 492.974H471.62C482.679 492.974 487.748 499.636 487.748 511.537C487.748 523.438 482.679 530 471.62 530H459.82V492.974ZM471.019 527.973C479.073 527.973 482.318 523.658 482.318 511.417C482.318 499.175 479.073 494.96 471.019 494.96H464.929V527.973H471.019Z" fill="white"/>
</g>
<defs>
<clipPath id="clip0_511_16">
<rect width="566.93" height="566.93" fill="white" transform="translate(0 0.5)"/>
</clipPath>
</defs>
</svg>
